<svg xmlns="http://www.w3.org/2000/svg" width="1280" height="580" viewBox="0 0 1280 580">
    <defs>
        <style>
            .prefix__cls-2{fill:#0a2244;font-size:28px;font-family:Raleway-Italic,Raleway;font-style:italic;opacity:.69}.prefix__cls-4,.prefix__cls-6,.prefix__cls-8{fill:none}.prefix__cls-4{stroke:#0a2244}.prefix__cls-5{fill:#6fabff}.prefix__cls-6{stroke:#030d1b}.prefix__cls-7{stroke:none}
        </style>
    </defs>
    <g id="prefix__Group_16" data-name="Group 16" transform="translate(0 -895)">
        <path id="prefix__Rectangle_25" fill="#f1f7ff" d="M0 0H1280V580H0z" data-name="Rectangle 25" transform="translate(0 895)"/>
        <text id="prefix__An_integrated_steel_plant_with_power_sustainibilty__" class="prefix__cls-2" data-name="An integrated steel plant with power sustainibilty." transform="translate(141 1093)">
            <tspan x="0" y="0">An integrated steel plant with power sustainibilty.</tspan>
        </text>
        <text id="prefix__A_company_with_high_success_rate_and_per_capita_benefit_" class="prefix__cls-2" data-name="A company with high success rate and per capita benefit." transform="translate(141 1145)">
            <tspan x="0" y="0">A company with high success rate and per capita benefit.</tspan>
        </text>
        <text id="prefix__Integrated_steel_plant_having_manufacturing_capacity_of_Sponge_iron_-_90000_MTPA_POWER_WHRB_-_6MW_and_AFBC-_9MW_induction_furnace-_120_00_TPA_" class="prefix__cls-2" data-name="Integrated steel plant having manufacturing capacity of Sponge iron - 90000 MTPA, POWER WHRB - 6MW and AFBC- 9MW, induction furnace- 120,00 TPA." transform="translate(141 1197)">
            <tspan x="0" y="0">Integrated steel plant having manufacturing capacity of Sponge iron - 90000 MTPA, </tspan><tspan x="0" y="47">POWER WHRB - 6MW and AFBC- 9MW, induction furnace- 120,00 TPA.</tspan>
        </text>
        <text id="prefix__A_venture_run_by_The_Goyal_Family_with_a_vast_experience_in_iron_and_steel_" class="prefix__cls-2" data-name="A venture run by The Goyal Family with a vast experience in iron and steel." transform="translate(141 1293)">
            <tspan x="0" y="0">A venture run by The Goyal Family with a vast experience in iron and steel.</tspan>
        </text>
        <text id="prefix__Plant_set_up_in_the_sweet_green_village_of_Sarona_Chhattisgarh_" class="prefix__cls-2" data-name="Plant set up in the sweet green village of Sarona, Chhattisgarh." transform="translate(141 1347)">
            <tspan x="0" y="0">Plant set up in the sweet green village of Sarona, Chhattisgarh.</tspan>
        </text>
        <text id="prefix__An_ideal_factory_with_the_motivation_of_efficient_use_of_power_resources_available_" class="prefix__cls-2" data-name="An ideal factory with the motivation of efficient use of power &amp; resources available." transform="translate(141 1399)">
            <tspan x="0" y="0">An ideal factory with the motivation of efficient use of power &amp; resources available.</tspan>
        </text>
        <text id="prefix__Our_Proud_Business" fill="#0a2244" data-name="Our Proud Business" font-family="Raleway-ExtraBold, Raleway" font-size="32px" font-weight="800" transform="translate(463 1000)">
            <tspan x="0" y="0">OUR PROUD BUSINESS</tspan>
        </text>
        <path id="prefix__Line_5" d="M0 0L587 0" class="prefix__cls-4" data-name="Line 5" transform="translate(346.5 1030.5)"/>
        <path id="prefix__Line_6" d="M0 0L587 0" class="prefix__cls-4" data-name="Line 6" transform="translate(346.5 946.5)"/>
        <g id="prefix__Bullet" transform="translate(-300 -248)">
            <path id="prefix__Rectangle_42" d="M0 0H8V8H0z" class="prefix__cls-5" data-name="Rectangle 42" transform="rotate(45 -1407.623 1129.65)"/>
            <g id="prefix__Rectangle_43" class="prefix__cls-6" data-name="Rectangle 43">
                <path d="M0 0H16V16H0z" class="prefix__cls-7" transform="rotate(45 -1400.795 1126.822)"/>
                <path d="M0.5 0.5H15.5V15.5H0.5z" class="prefix__cls-8" transform="rotate(45 -1400.795 1126.822)"/>
            </g>
        </g>
        <g id="prefix__Bullet-2" data-name="Bullet" transform="translate(-300 -196)">
            <path id="prefix__Rectangle_42-2" d="M0 0H8V8H0z" class="prefix__cls-5" data-name="Rectangle 42" transform="rotate(45 -1407.623 1129.65)"/>
            <g id="prefix__Rectangle_43-2" class="prefix__cls-6" data-name="Rectangle 43">
                <path d="M0 0H16V16H0z" class="prefix__cls-7" transform="rotate(45 -1400.795 1126.822)"/>
                <path d="M0.5 0.5H15.5V15.5H0.5z" class="prefix__cls-8" transform="rotate(45 -1400.795 1126.822)"/>
            </g>
        </g>
        <g id="prefix__Bullet-3" data-name="Bullet" transform="translate(-300 -144)">
            <path id="prefix__Rectangle_42-3" d="M0 0H8V8H0z" class="prefix__cls-5" data-name="Rectangle 42" transform="rotate(45 -1407.623 1129.65)"/>
            <g id="prefix__Rectangle_43-3" class="prefix__cls-6" data-name="Rectangle 43">
                <path d="M0 0H16V16H0z" class="prefix__cls-7" transform="rotate(45 -1400.795 1126.822)"/>
                <path d="M0.5 0.5H15.5V15.5H0.5z" class="prefix__cls-8" transform="rotate(45 -1400.795 1126.822)"/>
            </g>
        </g>
        <g id="prefix__Bullet-4" data-name="Bullet" transform="translate(-300 -48)">
            <path id="prefix__Rectangle_42-4" d="M0 0H8V8H0z" class="prefix__cls-5" data-name="Rectangle 42" transform="rotate(45 -1407.623 1129.65)"/>
            <g id="prefix__Rectangle_43-4" class="prefix__cls-6" data-name="Rectangle 43">
                <path d="M0 0H16V16H0z" class="prefix__cls-7" transform="rotate(45 -1400.795 1126.822)"/>
                <path d="M0.5 0.5H15.5V15.5H0.5z" class="prefix__cls-8" transform="rotate(45 -1400.795 1126.822)"/>
            </g>
        </g>
        <g id="prefix__Bullet-5" data-name="Bullet" transform="translate(75.186 1326.55)">
            <path id="prefix__Rectangle_42-5" d="M0 0H8V8H0z" class="prefix__cls-5" data-name="Rectangle 42" transform="rotate(45 -1.172 16.486)"/>
            <g id="prefix__Rectangle_43-5" class="prefix__cls-6" data-name="Rectangle 43">
                <path d="M0 0H16V16H0z" class="prefix__cls-7" transform="rotate(45 5.657 13.657)"/>
                <path d="M0.5 0.5H15.5V15.5H0.5z" class="prefix__cls-8" transform="rotate(45 5.657 13.657)"/>
            </g>
        </g>
        <g id="prefix__Bullet-6" data-name="Bullet" transform="translate(-300 58)">
            <path id="prefix__Rectangle_42-6" d="M0 0H8V8H0z" class="prefix__cls-5" data-name="Rectangle 42" transform="rotate(45 -1407.623 1129.65)"/>
            <g id="prefix__Rectangle_43-6" class="prefix__cls-6" data-name="Rectangle 43">
                <path d="M0 0H16V16H0z" class="prefix__cls-7" transform="rotate(45 -1400.795 1126.822)"/>
                <path d="M0.5 0.5H15.5V15.5H0.5z" class="prefix__cls-8" transform="rotate(45 -1400.795 1126.822)"/>
            </g>
        </g>
    </g>
</svg>
