<svg xmlns="http://www.w3.org/2000/svg" width="93.898" height="144.624" viewBox="0 0 93.898 144.624">
    <defs>
        <style>
            .prefix__cls-1{fill:#0a2244}.prefix__cls-2{fill:#3085ff}
        </style>
    </defs>
    <g id="prefix__pdf-file" transform="translate(-44.806)">
        <path id="prefix__Path_22" d="M124.152 300.47c0-1.915-1.329-3.058-3.674-3.058a8.135 8.135 0 0 0-1.945.185v6.145a7.37 7.37 0 0 0 1.576.121c2.499 0 4.043-1.263 4.043-3.393z" class="prefix__cls-1" data-name="Path 22" transform="translate(-56.091 -226.267)"/>
        <path id="prefix__Path_23" d="M195.934 297.681a9.7 9.7 0 0 0-2.13.185v13.61a8.517 8.517 0 0 0 1.636.094c4.26.03 7.039-2.315 7.039-7.284.03-4.321-2.502-6.605-6.545-6.605z" class="prefix__cls-1" data-name="Path 23" transform="translate(-113.356 -226.472)"/>
        <path id="prefix__Path_24" d="M109.549 0H63.227a12.293 12.293 0 0 0-12.276 12.275v45.392h-1.2a4.946 4.946 0 0 0-4.946 4.947v30a4.945 4.945 0 0 0 4.946 4.946h1.2v5.5a12.288 12.288 0 0 0 12.275 12.275h63.205a12.288 12.288 0 0 0 12.269-12.277V29.052zM57.783 68.027a38.774 38.774 0 0 1 6.358-.43c2.9 0 4.969.554 6.358 1.666a6.081 6.081 0 0 1 2.223 4.815 6.65 6.65 0 0 1-1.913 4.939 9.649 9.649 0 0 1-6.76 2.19 12.182 12.182 0 0 1-1.606-.091v7.439h-4.66zm68.649 39.789H63.227a4.762 4.762 0 0 1-4.754-4.758v-5.5h58.92a4.945 4.945 0 0 0 4.947-4.946v-30a4.946 4.946 0 0 0-4.947-4.947H58.472v-45.39a4.76 4.76 0 0 1 4.754-4.75l43.51-.045v16.082a8.515 8.515 0 0 0 8.513 8.513L131 32.03l.177 71.028a4.758 4.758 0 0 1-4.745 4.758zM75.726 88.461V68.027a42.368 42.368 0 0 1 6.358-.43c3.951 0 6.513.709 8.52 2.22 2.16 1.606 3.517 4.166 3.517 7.842 0 3.981-1.45 6.73-3.457 8.426-2.19 1.821-5.525 2.684-9.6 2.684a40.723 40.723 0 0 1-5.338-.308zm33.688-12.1v3.826h-7.471v8.366h-4.722v-20.8h12.717v3.857h-7.994v4.754z" class="prefix__cls-1" data-name="Path 24"/>
        <path id="prefix__Rectangle_50" d="M0 0H24V26H0z" class="prefix__cls-2" data-name="Rectangle 50" transform="translate(85.246 101.624)"/>
        <path id="prefix__Polygon_2" d="M18.5 0L37 20H0z" class="prefix__cls-2" data-name="Polygon 2" transform="rotate(180 58.123 72.312)"/>
    </g>
</svg>
