<svg xmlns="http://www.w3.org/2000/svg" width="345.167" height="314.818" viewBox="0 0 345.167 314.818">
    <defs>
        <filter id="prefix__Union_1" width="345.167" height="314.818" x="0" y="0" filterUnits="userSpaceOnUse">
            <feOffset/>
            <feGaussianBlur result="blur" stdDeviation="11"/>
            <feFlood flood-opacity=".29"/>
            <feComposite in2="blur" operator="in"/>
            <feComposite in="SourceGraphic"/>
        </filter>
    </defs>
    <g filter="url(#prefix__Union_1)">
        <path id="prefix__Union_1-2" fill="#fff" d="M186.558 248.818l36.354-23.107v-10.632h36.776l-14.856 16.87 14.856 16.869zm-167.606 0l14.856-16.869-14.856-16.87h36.776v10.632l36.353 23.107zm157.52-21.086h27.065l-27.065 17.2zm-101.37 0h27.066v17.2zm107.035-8.432l5.573-25.3h25.914v25.3zm-76.162 0l-1.858-8.435h70.4l-1.858 8.435zm-40.96 0V194H90.93l5.57 25.3zm37.245-16.869L99 187.638l23.889 7.232 16.43-26.114 16.43 26.114 23.884-7.232-3.256 14.79zm32.415-8.435h9.288v-8.435h-9.288zm68.469-8.434a108.115 108.115 0 0 0 20.81-19.024c-10.524-6-14.062-18.493-7.8-28.345l2.322-3.652 4.022 2.109a20.971 20.971 0 0 1 11.363 15.764 95.755 95.755 0 0 0 4.523-8.827c-11.9-3.31-18.9-14.562-15.655-25.564l1.2-4.074 4.486 1.093a22.473 22.473 0 0 1 15.459 12.533 92.976 92.976 0 0 0 1.82-9.575c-12.414-.421-22.356-9.628-22.356-21.006v-4.215h4.644a23.935 23.935 0 0 1 18.45 8.413 90.868 90.868 0 0 0-.966-9.607c-12.1 2.489-24.3-4.065-27.539-15.043l-1.2-4.074 4.486-1.093a24.964 24.964 0 0 1 20.2 3.779 95.2 95.2 0 0 0-3.664-9.029c-10.974 5.233-24.618 1.775-30.874-8.064l-2.322-3.652 4.022-2.109a25.176 25.176 0 0 1 20.614-1.092c-1.89-2.712-3.943-5.34-6.116-7.887-9.112 7.655-23.294 7.524-32.145-.514l-3.283-2.982 3.283-2.982A24.668 24.668 0 0 1 211.119 31l1.509-1.477h-3.223C191.452 29.52 176.9 16.3 176.9 0h4.644C199 0 213.209 12.512 213.98 28.192l3.232-3.163c.028.025.056.055.089.08a19.816 19.816 0 0 1 6.464-18.092l3.283-2.982 3.283 2.982a19.741 19.741 0 0 1 0 29.82l-.585.532a110 110 0 0 1 7.63 9.851 20.956 20.956 0 0 1 11.41-16.009l4.022-2.108 2.322 3.652c6.413 10.083 2.606 22.98-8.5 28.8l-.738.388a104.52 104.52 0 0 1 4.578 11.315 22.462 22.462 0 0 1 15.6-12.8l4.486-1.092 1.2 4.073c3.316 11.252-4.036 22.811-16.421 25.826l-.813.2a98.378 98.378 0 0 1 1.207 11.985 23.943 23.943 0 0 1 18.692-8.675h4.644V97c0 11.644-10.4 21.086-23.22 21.086h-.817a100.629 100.629 0 0 1-2.21 11.817 24.946 24.946 0 0 1 20.457-3.943l4.486 1.093-1.2 4.073c-3.32 11.252-16.054 17.928-28.44 14.912l-.72-.177a103.1 103.1 0 0 1-5.517 10.864 25.216 25.216 0 0 1 20.838 1.016l4.022 2.109-2.322 3.652c-6.422 10.076-20.622 13.534-31.722 7.71l-.688-.358a114.453 114.453 0 0 1-14.512 14.705zm-141.692 0a114.517 114.517 0 0 1-14.507-14.706l-.688.358c-11.1 5.825-25.305 2.366-31.719-7.713l-2.322-3.652 4.022-2.109a25.2 25.2 0 0 1 20.838-1.016 103.278 103.278 0 0 1-5.517-10.864l-.72.177C18.45 149.046 5.72 142.37 2.4 131.123l-1.2-4.074 4.486-1.092a24.942 24.942 0 0 1 20.455 3.943 100.841 100.841 0 0 1-2.21-11.817h-.813C10.3 118.083-.1 108.641-.1 97v-4.221h4.641a23.941 23.941 0 0 1 18.7 8.683 99.282 99.282 0 0 1 1.208-11.985l-.813-.2C11.243 86.263 3.891 74.7 7.212 63.453l1.2-4.074 4.488 1.092a22.451 22.451 0 0 1 15.594 12.8 104.344 104.344 0 0 1 4.579-11.315l-.739-.388c-11.1-5.824-14.911-18.72-8.5-28.8l2.322-3.652 4.021 2.109a20.959 20.959 0 0 1 11.41 16.008 110.293 110.293 0 0 1 7.63-9.851l-.585-.531a19.742 19.742 0 0 1 0-29.821l3.283-2.982L55.2 7.025a19.817 19.817 0 0 1 6.465 18.092c.028-.025.056-.054.088-.08l3.234 3.163C65.754 12.512 79.96 0 97.421 0h4.644c0 16.3-14.555 29.52-32.508 29.52h-3.222L67.838 31a24.68 24.68 0 0 1 20.192 5.849l3.283 2.982-3.283 2.982c-8.856 8.038-23.039 8.168-32.145.514-2.174 2.547-4.226 5.175-6.116 7.887A25.193 25.193 0 0 1 70.384 52.3l4.022 2.109-2.322 3.652c-6.256 9.839-19.9 13.3-30.874 8.064a95.915 95.915 0 0 0-3.664 9.029 24.95 24.95 0 0 1 20.2-3.779l4.486 1.093-1.2 4.074c-3.238 10.979-15.442 17.532-27.54 15.044a92.318 92.318 0 0 0-.966 9.607 23.952 23.952 0 0 1 18.455-8.413h4.644V97c0 11.378-9.943 20.585-22.361 21.006a92.974 92.974 0 0 0 1.812 9.569 22.473 22.473 0 0 1 15.459-12.533l4.486-1.093 1.2 4.074c3.251 11.007-3.752 22.259-15.655 25.564a95.756 95.756 0 0 0 4.523 8.827 20.971 20.971 0 0 1 11.363-15.764l4.022-2.109 2.322 3.652c6.265 9.851 2.722 22.343-7.8 28.345a108.247 108.247 0 0 0 20.81 19.024zm116.989-42.016v-10.731h-13.774l-.007-3.571 17.258-18.492h3.659v17.125a9.107 9.107 0 0 0 1.32-.231 7.509 7.509 0 0 0 3.029-1.57l.895.447-1.72 6.292h-3.523v10.729zM168.5 127.96h9.944v-10.947zM87 136.327a30.926 30.926 0 0 1 6.547-6.071 65.148 65.148 0 0 0 5.6-4.048 10.909 10.909 0 0 0 3.01-4 7.266 7.266 0 0 0 .524-3.244 6.516 6.516 0 0 0-1.059-3.1 6.386 6.386 0 0 0-2.459-2.166 6.523 6.523 0 0 0-3.209-.669 6.692 6.692 0 0 0-5.964 4.454 3.234 3.234 0 0 1 2.983 5.4 3.364 3.364 0 0 1-2.41 1.02 3.775 3.775 0 0 1-2.864-1.414 4.789 4.789 0 0 1-1.008-3.074 6.8 6.8 0 0 1 1.282-3.736 10.117 10.117 0 0 1 2.909-2.72 14.916 14.916 0 0 1 7.606-2.222 12.557 12.557 0 0 1 6.624 1.565 8.882 8.882 0 0 1 4.146 5.284 8.355 8.355 0 0 1 .063 3.923 9.733 9.733 0 0 1-1.646 3.574 17.235 17.235 0 0 1-6.161 4.866c-2.21 1.154-4.515 2.114-6.743 3.234a50.017 50.017 0 0 0-5.352 3.1l16.1.008a7.71 7.71 0 0 0 2.362-.268 4.236 4.236 0 0 0 1.958-1.309l.919.447-3.568 7.443-20.19.059zm63.817 6.315a10.885 10.885 0 0 1-5.248-1.393 12.643 12.643 0 0 1-4.04-3.651 18.254 18.254 0 0 1-3.18-10.335 18.524 18.524 0 0 1 2.944-10.8 12.78 12.78 0 0 1 4.1-3.866 10.745 10.745 0 0 1 10.861-.02 12.781 12.781 0 0 1 4.124 3.864 18.5 18.5 0 0 1 2.96 10.821 18.239 18.239 0 0 1-3.2 10.357 12.631 12.631 0 0 1-4.06 3.649 10.891 10.891 0 0 1-5.243 1.373zm-.131-29.591a5.244 5.244 0 0 0-2.312.558 5.022 5.022 0 0 0-1.8 1.547 5.662 5.662 0 0 0-.925 2.193 12.258 12.258 0 0 0-.167 2.389v14.455a9.474 9.474 0 0 0 .194 2.252 4.883 4.883 0 0 0 1.012 2.005 5.118 5.118 0 0 0 1.81 1.332 6.592 6.592 0 0 0 4.549.251 4.912 4.912 0 0 0 2.018-1.229 4.608 4.608 0 0 0 1.143-2.064 8.866 8.866 0 0 0 .187-2.371l-.264-14.543a12.7 12.7 0 0 0-.213-2.445 5.854 5.854 0 0 0-.982-2.234 5.155 5.155 0 0 0-1.869-1.562 5.308 5.308 0 0 0-2.324-.536zm-26.18 29.591a10.889 10.889 0 0 1-5.249-1.393 12.631 12.631 0 0 1-4.039-3.651 18.247 18.247 0 0 1-3.18-10.335 18.511 18.511 0 0 1 2.944-10.8 12.78 12.78 0 0 1 4.1-3.866 10.744 10.744 0 0 1 10.86-.02 12.772 12.772 0 0 1 4.124 3.864 18.5 18.5 0 0 1 2.961 10.821 18.233 18.233 0 0 1-3.2 10.357 12.631 12.631 0 0 1-4.06 3.649 10.887 10.887 0 0 1-5.242 1.373zm-.132-29.591a5.247 5.247 0 0 0-2.312.558 5.011 5.011 0 0 0-1.8 1.547 5.648 5.648 0 0 0-.925 2.193 12.189 12.189 0 0 0-.166 2.389v14.455a9.428 9.428 0 0 0 .194 2.252 4.882 4.882 0 0 0 1.011 2.005 5.121 5.121 0 0 0 1.811 1.332 6.589 6.589 0 0 0 4.548.251 4.915 4.915 0 0 0 2.019-1.229 4.615 4.615 0 0 0 1.142-2.064 8.829 8.829 0 0 0 .187-2.371l-.264-14.543a12.557 12.557 0 0 0-.213-2.445 5.841 5.841 0 0 0-.982-2.234 5.152 5.152 0 0 0-1.868-1.562 5.312 5.312 0 0 0-2.325-.536zm4.2-20.4a3.43 3.43 0 0 1-.085-2.35 7.319 7.319 0 0 1 2.008-2.872c.25-.248.5-.491.763-.729l-2.344-1.849v-4.34l6.407-3.72a3.243 3.243 0 0 0 1.279 1.118 2.3 2.3 0 0 0 1.015.237 1.65 1.65 0 0 0 .979-.329 1.431 1.431 0 0 0 .541-.963h.887a10.6 10.6 0 0 1-.862 3.3 6.894 6.894 0 0 1-.9 1.478 8.177 8.177 0 0 1-.94.961l2.678 1.98v4.681l-6.12 3.72a2.927 2.927 0 0 0-1.417-1.269 2.317 2.317 0 0 0-.944-.18 1.663 1.663 0 0 0-.91.289 1.186 1.186 0 0 0-.421.53.951.951 0 0 0-.009.672.88.88 0 0 0 .384.45l-.3.814a3.048 3.048 0 0 1-1.685-1.628zm5.493-4.01A4.129 4.129 0 0 1 136 90.628V86.59l-1.718-1.368-1.114.957c-.7.6-1.382 1.219-2.044 1.86-.309.3-.615.606-.893.934a3.472 3.472 0 0 1 1.85-.715q.149-.012.3-.012a3.877 3.877 0 0 1 1.689.396zm-1.152-5.807l1.283 1.309 2.282-1.96a8.446 8.446 0 0 0 1.088-1.072c.1-.122.193-.25.283-.381a3.583 3.583 0 0 1-1.081.326 3.635 3.635 0 0 1-1.929-.274 3.71 3.71 0 0 1-1.926-1.986zm-22.45 6.957a11.813 11.813 0 0 1-3.128-8.226 12.155 12.155 0 0 1 8.447-11.311l.3.446a8.579 8.579 0 0 0-3.338 3.125l8.188-5a18.009 18.009 0 0 0 5.246 2.656l.977-.812.254.3-3.687 3.851a31.075 31.075 0 0 1-3.32-1.574q-.234-.128-.465-.26V78.4h7.23l-3.783 3.938h-3.447v7.306a8.468 8.468 0 0 0 3.641-1.379 8.738 8.738 0 0 0 2.773-3.045h.594a8.142 8.142 0 0 1-.821 3.193 8.449 8.449 0 0 1-3.135 3.432 9.244 9.244 0 0 1-4.46 1.342c-.128.005-.256.008-.384.008a10.725 10.725 0 0 1-7.678-3.403zm7.2-17.931v11.58l-5.352 2.253a7.949 7.949 0 0 0 .888 1.344 7.326 7.326 0 0 0 2.921 2.14 7.611 7.611 0 0 0 2.929.532V72.456q-.581-.358-1.145-.741zm-5.662 3.46a13.035 13.035 0 0 0-.819 3.719 14.263 14.263 0 0 0 .246 4.2 10.049 10.049 0 0 0 .53 1.7l1.7-.726v-9.907zm52.837 14.848l2.786-2.786 2.831 2.832L167.676 93zm-21.8-.322l-1.189.743-.443-.589 2.081-1.337v-7.577a2.142 2.142 0 0 0-.037-.462 1.218 1.218 0 0 0-.183-.424 1.359 1.359 0 0 0-.552-.458 1.525 1.525 0 0 0-.715-.136v-.446l5.052-5.065h.595v3.565h3.686l-1.454 1.7h-2.231v9.59l1.457 1.469 1.027-.555.446.594-4.267 2.208zm8.285-.281v-9.53l3.775-2.322-2.918-2.658-.634.108V69.6l10.691 9.408 1.146-.93.547.674-1.327 1.076-.014 8.787-6.8 4.014zm4-1.626l3.286 2.285v-9.315l-3.286-2.992z" data-name="Union 1" transform="translate(33.1 33)"/>
    </g>
</svg>
